<svg width="596" height="167" viewBox="0 0 596 167" fill="none" xmlns="http://www.w3.org/2000/svg">
<path fill-rule="evenodd" clip-rule="evenodd" d="M44.557 66.4521C37.1204 63.6688 31.0432 60.439 26.9625 54.3063C22.8818 48.175 20.8417 40.9074 21.1342 33.5426C21.427 26.1792 24.0375 19.0966 28.5922 13.309C33.1468 7.52145 39.4126 3.3241 46.493 1.31793C53.5733 -0.686934 61.1053 -0.398276 68.012 2.14191C74.9188 4.68341 80.846 9.34786 84.946 15.4674C89.0464 21.587 91.109 28.848 90.8395 36.2127C90.5696 43.5774 88.5875 48.2635 83.8924 54.9708C83.8924 54.9708 80.3256 53.5751 77.9747 52.8833C75.5853 52.1802 71.7682 51.4145 71.7682 51.4145C75.7926 46.712 78.465 40.5518 78.6402 35.7653C78.8154 30.9775 77.4746 26.258 74.8097 22.2797C72.1445 18.3028 68.2917 15.2706 63.8026 13.6187C59.3132 11.9668 54.4173 11.7791 49.8152 13.0834C45.2127 14.3876 41.1402 17.1154 38.1795 20.8771C35.2189 24.6389 33.5224 29.243 33.3321 34.0294C33.1419 38.8159 34.4676 43.5394 37.1204 47.5255C39.3354 51.4145 40.3797 52.1875 44.5583 54.3521L44.557 66.4521ZM66.4873 58.5349C79.902 61.2221 90.5326 67.9585 98.3898 78.0629C106.247 88.1659 110.345 100.696 109.977 113.497C109.61 126.299 104.8 138.572 96.3763 148.205C87.9522 157.84 76.4397 164.234 63.8183 166.287C51.1972 168.341 38.2562 165.925 27.2206 159.458C16.1846 152.989 7.74381 142.872 3.34967 130.845C-1.04447 118.817 -1.1175 105.634 3.14302 93.5585C7.40354 81.4835 18.3429 71.055 27.0624 65.6808C27.0624 65.6808 28.8924 67.4958 31.6772 69.5833C34.462 71.6708 37.7937 73.0429 37.7937 73.0429C29.3523 78.118 18.3507 88.4821 15.0701 97.7808C11.7895 107.078 11.8458 117.23 15.2293 126.49C18.6127 135.751 25.1121 143.541 33.6095 148.522C42.1073 153.502 52.072 155.363 61.7901 153.782C71.5085 152.201 80.3731 147.278 86.8596 139.859C93.3462 132.441 97.0493 122.99 97.3323 113.133C97.6152 103.276 94.4604 93.6281 88.4104 85.8488C82.36 78.0681 75.2068 72.6424 66.4873 70.6271V58.5349ZM61.7072 24.5536H49.6341V85.6795C37.35 88.4349 28.1707 99.4222 28.1707 112.557C28.1707 127.77 40.4829 140.101 55.6706 140.101C70.8584 140.101 83.1706 127.77 83.1706 112.557C83.1706 99.4222 73.9913 88.4349 61.7072 85.6795V31.9432L65.7316 28.5843V24.5536H61.7072ZM59.1612 112.434C61.8582 111.133 63.7194 108.367 63.7194 105.168C63.7194 100.716 60.1159 97.1064 55.6706 97.1064C51.2254 97.1064 47.6219 100.716 47.6219 105.168C47.6219 108.367 49.4831 111.133 52.1801 112.434L48.9633 125.321H62.3779L59.1612 112.434Z" fill="#2F2FE4"/>
<path d="M189.88 124L172.96 94.84H160.36V124H143.8V40H177.4C185.16 40 191.76 42.72 197.2 48.16C202.64 53.6 205.36 60.16 205.36 67.84C205.36 73.04 203.88 77.88 200.92 82.36C197.96 86.76 194.04 90.08 189.16 92.32L207.76 124H189.88ZM160.36 55.48V80.32H177.4C180.52 80.32 183.2 79.12 185.44 76.72C187.68 74.24 188.8 71.28 188.8 67.84C188.8 64.4 187.68 61.48 185.44 59.08C183.2 56.68 180.52 55.48 177.4 55.48H160.36ZM244.902 125.68C236.582 125.68 229.582 123.84 223.902 120.16C218.222 116.4 214.222 111.32 211.902 104.92L226.062 96.64C229.342 105.2 235.782 109.48 245.382 109.48C250.022 109.48 253.422 108.64 255.582 106.96C257.742 105.28 258.822 103.16 258.822 100.6C258.822 97.64 257.502 95.36 254.862 93.76C252.222 92.08 247.502 90.28 240.702 88.36C236.942 87.24 233.742 86.12 231.102 85C228.542 83.88 225.942 82.4 223.302 80.56C220.742 78.64 218.782 76.24 217.422 73.36C216.062 70.48 215.382 67.12 215.382 63.28C215.382 55.68 218.062 49.64 223.422 45.16C228.862 40.6 235.382 38.32 242.982 38.32C249.782 38.32 255.742 40 260.862 43.36C266.062 46.64 270.102 51.24 272.982 57.16L259.062 65.2C255.702 58 250.342 54.4 242.982 54.4C239.542 54.4 236.822 55.2 234.822 56.8C232.902 58.32 231.942 60.32 231.942 62.8C231.942 65.44 233.022 67.6 235.182 69.28C237.422 70.88 241.662 72.64 247.902 74.56C250.462 75.36 252.382 76 253.662 76.48C255.022 76.88 256.822 77.56 259.062 78.52C261.382 79.4 263.142 80.24 264.342 81.04C265.622 81.84 267.062 82.92 268.662 84.28C270.262 85.64 271.462 87.04 272.262 88.48C273.142 89.92 273.862 91.68 274.422 93.76C275.062 95.76 275.382 97.96 275.382 100.36C275.382 108.12 272.542 114.28 266.862 118.84C261.262 123.4 253.942 125.68 244.902 125.68ZM284.894 95.2V80.32H329.894V95.2H284.894ZM345.48 40H362.04V124H345.48V40ZM443.229 62.32C450.109 62.32 455.589 64.56 459.669 69.04C463.829 73.52 465.909 79.52 465.909 87.04V124H450.429V88.12C450.429 84.52 449.549 81.72 447.789 79.72C446.029 77.72 443.549 76.72 440.349 76.72C436.829 76.72 434.069 77.88 432.069 80.2C430.149 82.52 429.189 85.88 429.189 90.28V124H413.709V88.12C413.709 84.52 412.829 81.72 411.069 79.72C409.309 77.72 406.829 76.72 403.629 76.72C400.189 76.72 397.429 77.88 395.349 80.2C393.349 82.52 392.349 85.88 392.349 90.28V124H376.869V64H392.349V70.36C395.949 65 401.509 62.32 409.029 62.32C416.389 62.32 421.829 65.2 425.349 70.96C429.349 65.2 435.309 62.32 443.229 62.32ZM497.311 109.48H523.951V124H476.551V113.68L501.871 78.52H477.751V64H522.751V74.32L497.311 109.48ZM582.677 116.56C576.517 122.64 568.997 125.68 560.117 125.68C551.237 125.68 543.717 122.64 537.557 116.56C531.477 110.4 528.437 102.88 528.437 94C528.437 85.12 531.477 77.64 537.557 71.56C543.717 65.4 551.237 62.32 560.117 62.32C568.997 62.32 576.517 65.4 582.677 71.56C588.837 77.64 591.917 85.12 591.917 94C591.917 102.88 588.837 110.4 582.677 116.56ZM548.477 105.88C551.597 109 555.477 110.56 560.117 110.56C564.757 110.56 568.637 109 571.757 105.88C574.877 102.76 576.437 98.8 576.437 94C576.437 89.2 574.877 85.24 571.757 82.12C568.637 79 564.757 77.44 560.117 77.44C555.477 77.44 551.597 79 548.477 82.12C545.437 85.24 543.917 89.2 543.917 94C543.917 98.8 545.437 102.76 548.477 105.88Z" fill="#2F2FE4"/>
</svg>
